
<svg viewBox="0 0 46.688 42.78" xmlns="http://www.w3.org/2000/svg">

<path class="cls-1" transform="translate(-592.16 -1907.8)" d="m637.06 1913a2.671 2.671 0 0 0 -2.092 -1.02h-27.117a2.662 2.662 0 0 0 -2.538 3.48l4.991 15.61a1.664 1.664 0 0 0 1.579 1.15h20.3a1.663 1.663 0 0 0 1.612 -1.27l3.761-15.68a2.666 2.666 0 0 0 -0.496 -2.27zm-0.641 22.17h-26.187a2.123 2.123 0 0 1 -2.029 -1.47l-7.207-22.36a5.077 5.077 0 0 0 -4.845 -3.53h-1.576a2.43 2.43 0 0 0 0 4.86h1.576a0.243 0.243 0 0 1 0.225 0.16l7.208 22.36a6.974 6.974 0 0 0 6.65 4.84h26.187a2.43 2.43 0 0 0 -2e-3 -4.86zm-24.466 7.66a3.87 3.87 0 1 0 3.871 3.87 3.869 3.869 0 0 0 -3.871 -3.87zm20.329 0a3.87 3.87 0 1 0 3.871 3.87 3.869 3.869 0 0 0 -3.871 -3.87z"/>
</svg>
